# xmcd
#
# Track frame offsets: 
#        150
#        12289
#        26833
#        39439
#        44539
#
# Disc length: 781 seconds
#
# Revision: 0
# Processed by: cddbd v1.5.2PL0 Copyright (c) Steve Scherf et al.
# Submitted via: ExactAudioCopy v1.0b1
#
DISCID=38030b05
DTITLE=Kajo - Promo EP
DYEAR=2011
DGENRE=Hip-Hop
TTITLE0=Uuden alun
TTITLE1=Uusivuosibiisi (feat. Santeri)
TTITLE2=Toimitan tyhj‰‰
TTITLE3=Paskaa aikaa
TTITLE4=Elet‰‰n iisist (feat. Illmasta)
EXTD=
EXTT0=
EXTT1=
EXTT2=
EXTT3=
EXTT4=
PLAYORDER=
